<svg width="161" height="80" viewBox="0 0 161 80" fill="none" xmlns="http://www.w3.org/2000/svg">
<path d="M92.2465 53.3702C86.6969 57.436 78.653 59.6053 71.7274 59.6053C62.0166 59.6053 53.2744 56.0353 46.6605 50.0977C46.1409 49.6308 46.6065 48.9945 47.23 49.3581C54.3677 53.4859 63.193 55.9692 72.3094 55.9692C78.4577 55.9692 85.2212 54.7048 91.4401 52.0811C92.3796 51.6844 93.1652 52.6926 92.2465 53.3702Z" fill="#FF9900"/>
<path d="M94.5521 50.7464C93.8454 49.8456 89.8629 50.3208 88.0754 50.5315C87.5308 50.5977 87.4477 50.1266 87.9382 49.7878C91.11 47.569 96.3146 48.2094 96.9216 48.9532C97.5285 49.701 96.7636 54.8866 93.783 57.3616C93.3257 57.7417 92.8892 57.5393 93.0929 57.0352C93.7622 55.3741 95.2629 51.6513 94.5521 50.7464Z" fill="#FF9900"/>
<path d="M88.2013 34.1237V31.9669C88.2013 31.6404 88.4507 31.4214 88.7501 31.4214H98.465C98.7768 31.4214 99.0262 31.6446 99.0262 31.9669V33.8138C99.0221 34.1237 98.7602 34.5286 98.2946 35.1691L93.2604 42.3132C95.1311 42.2677 97.1057 42.5445 98.8018 43.4949C99.1842 43.7097 99.2881 44.0238 99.3172 44.3337V46.6351C99.3172 46.9492 98.968 47.3169 98.6022 47.1268C95.6133 45.5691 91.6433 45.3997 88.3385 47.1434C88.0018 47.3252 87.6484 46.9616 87.6484 46.6475V44.4618C87.6484 44.1105 87.6526 43.5114 88.0059 42.9784L93.8383 34.665H88.7625C88.4507 34.665 88.2013 34.446 88.2013 34.1237Z" fill="#1E2532"/>
<path d="M52.7629 47.5813H49.8072C49.5246 47.5607 49.3001 47.3499 49.2793 47.0814V32.004C49.2793 31.7024 49.5329 31.4627 49.8488 31.4627H52.6049C52.8918 31.4751 53.1204 31.6941 53.1412 31.9668V33.9378H53.1952C53.9144 32.033 55.2654 31.1446 57.0862 31.1446C58.9361 31.1446 60.0917 32.033 60.9231 33.9378C61.6382 32.033 63.2636 31.1446 65.0054 31.1446C66.2441 31.1446 67.5993 31.6528 68.4266 32.7932C69.3619 34.0617 69.1707 35.9046 69.1707 37.5201L69.1665 47.0359C69.1665 47.3375 68.913 47.5813 68.597 47.5813H65.6455C65.3504 47.5607 65.1134 47.3251 65.1134 47.0359V39.0448C65.1134 38.4085 65.1716 36.8218 65.0303 36.2186C64.81 35.2063 64.149 34.9212 63.2927 34.9212C62.5776 34.9212 61.8294 35.3963 61.5259 36.1566C61.2225 36.9169 61.2516 38.1895 61.2516 39.0448V47.0359C61.2516 47.3375 60.998 47.5813 60.682 47.5813H57.7305C57.4312 47.5607 57.1984 47.3251 57.1984 47.0359L57.1943 39.0448C57.1943 37.3631 57.4728 34.8881 55.3735 34.8881C53.2493 34.8881 53.3324 37.3011 53.3324 39.0448V47.0359C53.3324 47.3375 53.0788 47.5813 52.7629 47.5813Z" fill="#1E2532"/>
<path d="M107.391 31.1446C111.776 31.1446 114.15 34.8881 114.15 39.6481C114.15 44.2469 111.527 47.8953 107.391 47.8953C103.084 47.8953 100.739 44.1518 100.739 39.4869C100.739 34.7931 103.113 31.1446 107.391 31.1446ZM107.415 34.2229C105.237 34.2229 105.1 37.173 105.1 39.0117C105.1 40.8546 105.071 44.7882 107.391 44.7882C109.681 44.7882 109.789 41.6149 109.789 39.6811C109.789 38.4085 109.735 36.8879 109.348 35.6814C109.016 34.6319 108.355 34.2229 107.415 34.2229Z" fill="#1E2532"/>
<path d="M119.837 47.5813H116.894C116.599 47.5607 116.362 47.3251 116.362 47.0359L116.357 31.9544C116.382 31.6776 116.628 31.4627 116.927 31.4627H119.666C119.924 31.4751 120.136 31.6487 120.194 31.8842V34.1898H120.248C121.076 32.128 122.235 31.1446 124.277 31.1446C125.603 31.1446 126.896 31.6198 127.727 32.9213C128.5 34.1278 128.5 36.1566 128.5 37.6152V47.1062C128.467 47.3706 128.222 47.5813 127.931 47.5813H124.967C124.696 47.5607 124.472 47.3623 124.443 47.1062V38.9167C124.443 37.2681 124.634 34.855 122.593 34.855C121.874 34.855 121.213 35.3343 120.884 36.0616C120.469 36.983 120.415 37.9003 120.415 38.9167V47.0359C120.411 47.3375 120.153 47.5813 119.837 47.5813Z" fill="#1E2532"/>
<path d="M80.457 40.3794V39.7431C78.3203 39.7431 76.063 40.1976 76.063 42.7016C76.063 43.9701 76.724 44.8295 77.8589 44.8295C78.6903 44.8295 79.4344 44.3213 79.9041 43.4949C80.4861 42.4784 80.457 41.524 80.457 40.3794ZM83.4376 47.54C83.2422 47.7136 82.9596 47.726 82.7392 47.6103C81.7582 46.8004 81.5836 46.4244 81.0432 45.6518C79.4219 47.2962 78.2746 47.7879 76.1711 47.7879C73.6852 47.7879 71.748 46.2633 71.748 43.2098C71.748 40.8257 73.0492 39.2018 74.8991 38.4085C76.5037 37.7061 78.7443 37.5821 80.457 37.3879V37.0078C80.457 36.3095 80.5111 35.4831 80.0995 34.8799C79.7379 34.3386 79.0478 34.1155 78.4409 34.1155C77.3143 34.1155 76.3083 34.6898 76.063 35.8798C76.0132 36.1442 75.8178 36.4045 75.5517 36.4169L72.6834 36.1112C72.4423 36.0575 72.1762 35.8633 72.2427 35.4955C72.9037 32.0412 76.0423 31 78.8524 31C80.2907 31 82.1697 31.3801 83.3046 32.4627C84.7429 33.7973 84.6057 35.5782 84.6057 37.516V42.0942C84.6057 43.4701 85.1794 44.0734 85.7198 44.8171C85.9111 45.0815 85.9526 45.3997 85.7115 45.598C85.1088 46.098 84.0362 47.0277 83.4459 47.5483L83.4376 47.54Z" fill="#1E2532"/>
<path d="M41.709 40.3794V39.7431C39.5723 39.7431 37.315 40.1976 37.315 42.7016C37.315 43.9701 37.976 44.8295 39.1108 44.8295C39.9422 44.8295 40.6864 44.3213 41.1561 43.4949C41.7381 42.4784 41.709 41.524 41.709 40.3794ZM44.6896 47.54C44.4942 47.7136 44.2115 47.726 43.9912 47.6103C43.0101 46.8004 42.8355 46.4244 42.2951 45.6518C40.6739 47.2962 39.5265 47.7879 37.4231 47.7879C34.9372 47.7879 33 46.2633 33 43.2098C33 40.8257 34.3012 39.2018 36.151 38.4085C37.7556 37.7061 39.9963 37.5821 41.709 37.3879V37.0078C41.709 36.3095 41.763 35.4831 41.3515 34.8799C40.9898 34.3386 40.2998 34.1155 39.6928 34.1155C38.5663 34.1155 37.5603 34.6898 37.315 35.8798C37.2651 36.1442 37.0697 36.4045 36.8037 36.4169L33.9353 36.1112C33.6942 36.0575 33.4282 35.8633 33.4947 35.4955C34.1557 32.0412 37.2942 31 40.1044 31C41.5427 31 43.4217 31.3801 44.5566 32.4627C45.9949 33.7973 45.8577 35.5782 45.8577 37.516V42.0942C45.8577 43.4701 46.4314 44.0734 46.9718 44.8171C47.163 45.0815 47.2046 45.3997 46.9635 45.598C46.3607 46.098 45.2882 47.0277 44.6979 47.5483L44.6896 47.54Z" fill="#1E2532"/>
</svg>
