<svg width="201" height="80" viewBox="0 0 201 80" fill="none" xmlns="http://www.w3.org/2000/svg">
<path d="M86.1267 31.0958C86.1282 30.6798 86.2529 30.2735 86.4849 29.9285C86.7171 29.5834 87.0461 29.315 87.4305 29.1572C87.8149 28.9994 88.2375 28.9593 88.6446 29.0419C89.0519 29.1246 89.4254 29.3263 89.7181 29.6215C90.0108 29.9168 90.2095 30.2923 90.2891 30.7006C90.3686 31.109 90.3255 31.5317 90.1652 31.9155C90.0048 32.2993 89.7343 32.6268 89.388 32.8567C89.0417 33.0865 88.6351 33.2084 88.2197 33.2069C87.9438 33.2059 87.6708 33.1505 87.4164 33.0439C87.1619 32.9372 86.9309 32.7814 86.7365 32.5854C86.5421 32.3894 86.3883 32.1569 86.2836 31.9013C86.179 31.6457 86.1257 31.372 86.1267 31.0958ZM51.7033 34.1588C50.4099 34.1725 49.1494 34.569 48.0805 35.2985C47.0117 36.0279 46.1823 37.0577 45.6967 38.2582C45.2111 39.4587 45.0911 40.7762 45.3518 42.0449C45.6125 43.3136 46.2421 44.4767 47.1616 45.3877C48.081 46.2988 49.2491 46.9171 50.5187 47.1648C51.7883 47.4125 53.1027 47.2786 54.2965 46.7798C55.4903 46.281 56.51 45.4398 57.2272 44.3619C57.9445 43.284 58.3273 42.0178 58.3273 40.7226C58.3555 39.8471 58.203 38.9752 57.8792 38.1614C57.5554 37.3478 57.0673 36.6097 56.4455 35.9935C55.8237 35.3774 55.0816 34.8964 54.2656 34.5807C53.4496 34.265 52.5773 34.1214 51.7033 34.1588ZM51.7033 44.2156C49.9017 44.2156 48.6367 42.78 48.6367 40.7226C48.6367 38.6652 49.894 37.2296 51.7033 37.2296C53.5127 37.2296 54.77 38.6652 54.77 40.7226C54.77 42.78 53.551 44.2156 51.7033 44.2156ZM82.0633 41.0527C81.9346 40.7929 81.7665 40.5547 81.565 40.3464L81.45 40.2236L81.5727 40.1084C81.7656 39.8995 81.9424 39.6762 82.1017 39.4405L85.4673 34.4122H81.381L78.8433 38.3504C78.7349 38.4688 78.5995 38.5593 78.4487 38.6141C78.2979 38.6689 78.136 38.6864 77.977 38.6652H77.402V31.2263C77.402 29.7446 76.4743 29.5374 75.4777 29.5374H73.768V47.0944H77.3943V41.8281H77.7317C78.1457 41.8281 78.4293 41.8741 78.5597 42.1044L80.5683 45.8584C80.7426 46.2721 81.0502 46.6156 81.442 46.834C81.8338 47.0524 82.2873 47.1332 82.7303 47.0637H85.5133L83.4357 43.6321L82.0633 41.0527ZM99.6737 34.1281C98.9873 34.1129 98.3052 34.2416 97.6714 34.506C97.0377 34.7705 96.4662 35.1647 95.9937 35.6635L95.7713 35.8861L95.6947 35.5791C95.5767 35.2014 95.3283 34.8781 94.9939 34.6671C94.6596 34.4561 94.2611 34.3712 93.87 34.4275H92.237V47.0867H95.8557V41.2523C95.8442 40.7317 95.9193 40.2128 96.078 39.7169C96.2451 39.0722 96.6241 38.5027 97.1541 38.1001C97.684 37.6976 98.3339 37.4856 98.999 37.4983C100.118 37.4983 100.532 38.0894 100.532 39.6325V45.1521C100.49 45.4148 100.511 45.6837 100.593 45.9367C100.674 46.1898 100.815 46.4198 101.003 46.6079C101.191 46.7961 101.42 46.9368 101.673 47.0187C101.926 47.1006 102.194 47.1213 102.457 47.079H104.159V39.026C104.182 35.8247 102.625 34.1281 99.6737 34.1281ZM88.2657 34.4122H86.5637V47.0944H90.167V36.3468C90.2079 36.0861 90.1872 35.8194 90.1067 35.5681C90.0261 35.3169 89.8878 35.088 89.7029 34.9C89.5181 34.7119 89.2918 34.5698 89.0421 34.4851C88.7926 34.4004 88.5266 34.3754 88.2657 34.4122ZM65.856 34.1588C64.5626 34.1725 63.3021 34.569 62.2332 35.2985C61.1644 36.0279 60.3349 37.0577 59.8494 38.2582C59.3638 39.4587 59.2438 40.7762 59.5045 42.0449C59.7651 43.3136 60.3948 44.4767 61.3143 45.3877C62.2337 46.2988 63.4017 46.9171 64.6713 47.1648C65.9409 47.4125 67.2554 47.2786 68.4492 46.7798C69.6429 46.281 70.6626 45.4398 71.3799 44.3619C72.0971 43.284 72.4799 42.0178 72.48 40.7226C72.5082 39.8471 72.3556 38.9752 72.0319 38.1614C71.708 37.3478 71.22 36.6097 70.5982 35.9935C69.9764 35.3774 69.2342 34.8964 68.4183 34.5807C67.6023 34.265 66.73 34.1214 65.856 34.1588ZM65.856 44.2156C64.0543 44.2156 62.7893 42.78 62.7893 40.7226C62.7893 38.6652 64.0467 37.2296 65.856 37.2296C67.6653 37.2296 68.9227 38.6652 68.9227 40.7226C68.9227 42.78 67.7037 44.2156 65.856 44.2156ZM116.134 34.3815C115.84 34.353 115.544 34.4103 115.281 34.5465C115.019 34.6827 114.801 34.892 114.654 35.1492L114.562 35.3411L114.394 35.1952C113.461 34.4302 112.278 34.0366 111.074 34.0898C107.708 34.0898 105.431 36.6308 105.431 40.4078C105.431 44.1849 107.785 46.818 111.143 46.818C112.133 46.8634 113.109 46.577 113.918 46.0043L114.194 45.7893V46.1425C114.194 47.839 113.098 48.7756 111.128 48.7756C110.3 48.7641 109.481 48.611 108.705 48.3227C108.556 48.2469 108.392 48.2072 108.225 48.2065C108.059 48.2059 107.894 48.2445 107.745 48.3192C107.596 48.3939 107.466 48.5026 107.367 48.6364C107.267 48.7704 107.2 48.9259 107.172 49.0904L106.474 50.8407L106.727 50.9712C108.099 51.6541 109.611 52.0063 111.143 51.9999C114.21 51.9999 117.79 50.4185 117.79 45.9889V34.3815H116.134ZM111.779 43.6628C109.817 43.6628 109.111 41.9355 109.111 40.3234C109.111 39.6094 109.288 37.2526 111.588 37.2526C112.73 37.2526 114.263 37.5751 114.263 40.4002C114.263 43.1024 112.914 43.6628 111.779 43.6628ZM42.0357 38.0894L41.5067 37.7977L41.9667 37.4138C42.4346 37.0019 42.8062 36.492 43.0553 35.9202C43.3044 35.3484 43.4248 34.7287 43.408 34.1051C43.408 31.3414 41.269 29.5604 37.9723 29.5604H33.771C33.3003 29.578 32.8543 29.7757 32.5248 30.1128C32.1954 30.4498 32.0075 30.9006 32 31.3721V47.033H38.0413C41.7137 47.033 44.0903 45.0293 44.0903 41.9202C44.1213 41.156 43.947 40.3975 43.5856 39.7237C43.2242 39.0499 42.6889 38.4856 42.0357 38.0894ZM35.3503 33.6598C35.3503 32.8461 35.6953 32.4623 36.4467 32.4162H37.98C38.2567 32.3913 38.5355 32.4277 38.7966 32.5228C39.0577 32.618 39.2946 32.7694 39.4907 32.9665C39.6868 33.1636 39.8372 33.4014 39.9312 33.6632C40.0252 33.925 40.0605 34.2043 40.0347 34.4813C40.0649 34.7625 40.034 35.0469 39.9439 35.315C39.8539 35.583 39.7068 35.8284 39.5131 36.0341C39.3192 36.2399 39.0832 36.4011 38.8212 36.5068C38.5592 36.6124 38.2775 36.66 37.9953 36.6462H35.3503V33.6598ZM38.2867 44.0697H35.3503V40.5537C35.3503 39.786 35.6493 39.4098 36.2857 39.3177H38.2867C38.8927 39.3522 39.4625 39.6176 39.8793 40.0594C40.2962 40.5012 40.5284 41.0859 40.5284 41.6937C40.5284 42.3015 40.2962 42.8862 39.8793 43.328C39.4625 43.7698 38.8927 44.0352 38.2867 44.0697Z" fill="#273B7D"/>
<path d="M121.316 47.2402C121.734 47.2418 122.142 47.1192 122.49 46.8882C122.838 46.6571 123.109 46.3279 123.27 45.9423C123.43 45.5567 123.473 45.132 123.393 44.722C123.312 44.3119 123.112 43.935 122.818 43.639C122.523 43.343 122.148 43.1412 121.738 43.0591C121.329 42.977 120.905 43.0183 120.519 43.1779C120.134 43.3375 119.804 43.6081 119.572 43.9554C119.34 44.3028 119.216 44.7112 119.216 45.1291C119.216 45.6877 119.437 46.2235 119.831 46.6192C120.224 47.0148 120.758 47.2382 121.316 47.2402ZM143.082 34.1588C141.789 34.1725 140.528 34.569 139.46 35.2984C138.39 36.0279 137.561 37.0577 137.075 38.2582C136.59 39.4587 136.47 40.7762 136.73 42.0449C136.991 43.3136 137.621 44.4766 138.54 45.3877C139.46 46.2987 140.628 46.917 141.898 47.1648C143.167 47.4125 144.481 47.2785 145.675 46.7798C146.869 46.281 147.889 45.4398 148.606 44.3619C149.324 43.284 149.706 42.0178 149.706 40.7226C149.735 39.8471 149.582 38.9752 149.258 38.1614C148.934 37.3477 148.447 36.6097 147.824 35.9935C147.202 35.3774 146.46 34.8964 145.644 34.5807C144.829 34.265 143.956 34.1214 143.082 34.1588ZM143.082 44.2155C141.28 44.2155 140.015 42.78 140.015 40.7226C140.015 38.6652 141.273 37.2296 143.082 37.2296C144.891 37.2296 146.149 38.6652 146.149 40.7226C146.149 42.78 144.93 44.2155 143.082 44.2155ZM165.806 34.1665C165.061 34.1693 164.326 34.3398 163.656 34.6654C162.986 34.991 162.398 35.4633 161.934 36.0473L161.674 36.3851L161.467 36.009C161.135 35.4063 160.637 34.9122 160.032 34.5854C159.427 34.2587 158.741 34.1133 158.055 34.1665C157.43 34.1767 156.812 34.3147 156.241 34.5721C155.67 34.8296 155.158 35.2009 154.735 35.6635L154.398 36.032L154.268 35.5483C154.147 35.1887 153.906 34.8826 153.583 34.6834C153.261 34.4842 152.879 34.4045 152.504 34.4582H150.971V47.0867H154.39V41.5133C154.395 41.0165 154.457 40.522 154.574 40.0393C154.904 38.6882 155.809 37.2373 157.327 37.3831C158.262 37.4753 158.722 38.1969 158.722 39.6017V47.0867H162.187V41.5133C162.173 40.9947 162.237 40.477 162.379 39.9779C162.655 38.6959 163.598 37.3755 165.062 37.3755C166.12 37.3755 166.511 37.9742 166.511 39.5941V45.2443C166.511 46.5186 167.079 47.0867 168.351 47.0867H170V39.026C170 35.8017 168.581 34.1665 165.806 34.1665ZM134.495 42.7032C133.591 43.6513 132.366 44.2287 131.061 44.323C130.588 44.3517 130.113 44.28 129.669 44.1128C129.225 43.9456 128.822 43.6866 128.485 43.3527C128.147 43.0187 127.885 42.6174 127.713 42.1747C127.541 41.7322 127.464 41.2583 127.488 40.784C127.448 40.316 127.507 39.8447 127.661 39.4012C127.816 38.9577 128.062 38.5519 128.384 38.2104C128.707 37.869 129.097 37.5996 129.531 37.42C129.964 37.2403 130.431 37.1545 130.9 37.1682C131.544 37.1682 132.28 37.3985 132.395 37.79V37.8591C132.47 38.1267 132.631 38.3624 132.853 38.5301C133.073 38.6978 133.344 38.7884 133.621 38.788H135.5V37.1375C135.5 34.9572 132.732 34.1665 130.9 34.1665C126.921 34.1665 124 36.9532 124 40.7763C124 44.5994 126.859 47.3938 130.792 47.3938C131.803 47.3832 132.8 47.1652 133.723 46.7531C134.647 46.3412 135.476 45.744 136.159 44.9986L134.733 42.4883L134.495 42.7032Z" fill="#499FDD"/>
</svg>
